# xmcd
# 
# Track frame offsets:
#     150
#     24975
#     44475
#     70425
#     90525
#     104962
#     127087
#     145874
#     176661
#     193573
#     206923
#     222935
# 
# Disc length: 3328
# 
# Revision: 0
# Processed by: cddbd v1.5.2PL0 Copyright (c) Steve Scherf et al.
# Submitted via: fre:ac v1.0.17
# 
DISCID=bf0cfe0c
DTITLE=The Silver Threads - Live at Roberts
DYEAR=2012
DGENRE=Country
TTITLE0=House of Blue Lights
TTITLE1=Jolene
TTITLE2=Jackson
TTITLE3=Blue Bayou
TTITLE4=Hot Rod Lincoln
TTITLE5=Crazy
TTITLE6=You Ain't Women Enough
TTITLE7=Cherokee Boogie
TTITLE8=The End of the World
TTITLE9=Alabama Jubilee
TTITLE10=Stand by Your Man
TTITLE11=Green Door
EXTD=
EXTT0=
EXTT1=
EXTT2=
EXTT3=
EXTT4=
EXTT5=
EXTT6=
EXTT7=
EXTT8=
EXTT9=
EXTT10=
EXTT11=
PLAYORDER=
